<svg xmlns="http://www.w3.org/2000/svg" width="1305" height="164" fill="none"><path fill="#fff" d="M284.655 39.863h14.961v87.269h-11.519l-47.038-60.859v60.859h-14.914V39.863h11.472l47.038 60.859V39.863ZM329.404 127.132V39.863h16.062v87.269h-16.062ZM447.569 39.863h12.62v87.269h-13.767V73.163l-23.519 53.969h-10.326l-23.519-53.969v53.969h-13.767V39.863h12.62l29.829 68.322 29.829-68.322ZM490.021 127.132V39.863h16.062v87.269h-16.062ZM613.376 107.246c-4.681 9.3-11.955 14.766-18.403 17.43.757 1.746 4.314 6.614 6.999 9.416 2.684 2.802 5.507 5.65 9.086 8.543l-10.899 8.612c-4.015-2.802-7.503-6.155-11.06-10.059-3.556-3.904-6.585-8.221-9.339-13.021-.665.046-2.524.115-3.694.115-8.88 0-16.291-1.814-22.693-5.42-6.402-3.629-11.289-8.819-14.662-15.616-3.098-6.178-5.094-14.423-5.094-23.747s1.721-16.948 5.14-23.746c3.419-6.775 8.329-11.988 14.731-15.616 6.402-3.629 13.882-5.42 22.578-5.42 8.697 0 16.292 1.814 22.693 5.42 6.402 3.628 11.289 8.818 14.662 15.616 3.396 6.798 5.094 14.422 5.094 23.746 0 9.324-2.042 17.592-5.139 23.747Zm-56.745.068c4.635 5.558 11.106 8.337 19.435 8.337 8.329 0 14.823-2.779 19.435-8.337 4.635-5.58 6.953-13.434 6.953-23.815 0-10.311-2.318-18.349-6.953-23.86-4.635-5.512-11.106-8.291-19.435-8.291-8.329 0-14.823 2.733-19.435 8.221-4.635 5.49-6.952 13.55-6.952 23.93 0 10.38 2.317 18.235 6.952 23.815ZM741.344 128.988c-8.563 0-15.85-1.77-21.861-5.311-5.928-3.623-10.457-8.769-13.586-15.438-3.129-6.67-4.693-14.616-4.693-23.838 0-9.222 1.564-17.126 4.693-23.713 3.129-6.67 7.658-11.775 13.586-15.316 6.011-3.623 13.298-5.434 21.861-5.434 6.258 0 11.816.988 16.674 2.964 4.858 1.894 9.099 4.735 12.722 8.522l-3.212 6.176c-4.034-3.706-8.069-6.382-12.104-8.028-4.034-1.73-8.728-2.594-14.08-2.594-10.457 0-18.402 3.294-23.837 9.88-5.434 6.506-8.152 15.686-8.152 27.543s2.718 21.079 8.152 27.666c5.435 6.587 13.38 9.881 23.837 9.881 5.352 0 10.046-.823 14.08-2.47 4.035-1.729 8.07-4.446 12.104-8.152l3.212 6.176c-3.623 3.787-7.905 6.669-12.845 8.645-4.858 1.894-10.375 2.841-16.551 2.841Zm46.513-.988V37.097h7.534V80.45h-1.482c1.729-5.023 4.652-8.852 8.769-11.486 4.117-2.635 8.893-3.953 14.327-3.953 7.493 0 13.01 1.976 16.551 5.929 3.623 3.952 5.434 9.88 5.434 17.785V128h-7.534V89.342c0-6.258-1.235-10.787-3.705-13.586-2.47-2.8-6.423-4.2-11.857-4.2-6.176 0-11.157 1.894-14.945 5.682-3.705 3.787-5.558 8.81-5.558 15.068V128h-7.534Zm94.871.988c-5.599 0-10.457-1.276-14.574-3.829-4.117-2.552-7.287-6.216-9.511-10.992-2.223-4.776-3.334-10.498-3.334-17.168s1.111-12.35 3.334-17.044c2.306-4.776 5.517-8.44 9.634-10.992 4.117-2.635 8.934-3.953 14.451-3.953 5.681 0 10.58 1.482 14.697 4.447 4.2 2.964 6.958 6.999 8.275 12.104h-1.482l1.235-15.44h7.287a1938.76 1938.76 0 0 1-.741 7.04 95.744 95.744 0 0 0-.247 6.794V128h-7.534v-15.439h1.359c-1.317 5.105-4.076 9.14-8.275 12.104-4.117 2.882-8.975 4.323-14.574 4.323Zm.988-6.422c6.34 0 11.363-2.182 15.068-6.546 3.705-4.364 5.558-10.705 5.558-19.02 0-8.317-1.853-14.657-5.558-19.021-3.705-4.364-8.728-6.546-15.068-6.546s-11.404 2.182-15.192 6.546c-3.705 4.364-5.558 10.704-5.558 19.02 0 8.316 1.853 14.657 5.558 19.021 3.788 4.364 8.852 6.546 15.192 6.546ZM932.233 128V79.955c0-2.223-.083-4.488-.247-6.793a108.142 108.142 0 0 0-.741-7.04h7.41l1.112 14.203h-1.482c1.811-4.94 4.734-8.728 8.769-11.362 4.035-2.635 8.728-3.953 14.08-3.953 7.328 0 12.845 1.935 16.55 5.805 3.788 3.87 5.682 9.922 5.682 18.156V128h-7.534V89.589c0-6.34-1.277-10.91-3.829-13.71-2.553-2.882-6.505-4.323-11.857-4.323-6.258 0-11.239 1.894-14.945 5.682-3.623 3.787-5.434 8.892-5.434 15.315V128h-7.534Zm98.077 27.543c-5.18 0-10.04-.7-14.57-2.1-4.45-1.4-8.44-3.5-11.98-6.299l2.72-5.805c2.63 1.894 5.14 3.376 7.53 4.446a31.957 31.957 0 0 0 7.66 2.471c2.63.576 5.47.864 8.52.864 6.26 0 10.99-1.688 14.2-5.064 3.22-3.293 4.82-8.069 4.82-14.327v-19.638h1.36c-1.32 5.188-4.08 9.263-8.28 12.228-4.19 2.881-9.13 4.322-14.82 4.322-5.68 0-10.62-1.235-14.82-3.705-4.11-2.552-7.33-6.134-9.63-10.745-2.22-4.694-3.336-10.169-3.336-16.427 0-6.258 1.116-11.692 3.336-16.303 2.3-4.611 5.52-8.152 9.63-10.622 4.2-2.552 9.14-3.829 14.82-3.829 5.69 0 10.63 1.482 14.82 4.447 4.2 2.882 6.96 6.957 8.28 12.227l-1.36-1.359 1.11-14.203h7.41c-.33 2.388-.57 4.734-.74 7.04-.16 2.305-.24 4.57-.24 6.793v48.663c0 8.892-2.27 15.603-6.8 20.132-4.44 4.528-10.99 6.793-19.64 6.793Zm-1.97-35.324c6.42 0 11.48-2.141 15.19-6.423 3.79-4.281 5.68-10.292 5.68-18.032 0-7.657-1.89-13.627-5.68-17.909-3.71-4.281-8.77-6.422-15.19-6.422s-11.53 2.14-15.32 6.422c-3.78 4.282-5.68 10.251-5.68 17.91 0 7.739 1.9 13.75 5.68 18.031 3.79 4.282 8.9 6.423 15.32 6.423Zm75.31 8.769c-9.39 0-16.84-2.799-22.36-8.399-5.43-5.599-8.15-13.38-8.15-23.343 0-6.587 1.19-12.268 3.58-17.044 2.47-4.776 5.89-8.481 10.25-11.116 4.37-2.717 9.43-4.076 15.19-4.076 5.52 0 10.17 1.194 13.96 3.582 3.79 2.306 6.71 5.64 8.77 10.004 2.06 4.282 3.09 9.387 3.09 15.315v3.459h-49.41v-5.435h44.71l-2.1 1.606c0-6.999-1.6-12.474-4.81-16.427-3.21-4.035-7.99-6.052-14.33-6.052-6.75 0-12.02 2.347-15.81 7.04-3.79 4.611-5.68 10.746-5.68 18.403v.865c0 8.234 2.02 14.491 6.05 18.773 4.12 4.282 9.84 6.423 17.17 6.423 3.79 0 7.33-.577 10.62-1.73 3.29-1.152 6.46-3.128 9.51-5.928l3.09 5.558c-2.64 2.717-6.05 4.817-10.25 6.299a39.08 39.08 0 0 1-13.09 2.223Zm40.5-.988V37.097h7.54V128h-7.54Zm52.56.988c-5.85 0-10.91-1.276-15.19-3.829-4.2-2.552-7.45-6.216-9.76-10.992-2.3-4.776-3.46-10.498-3.46-17.168 0-6.587 1.16-12.268 3.46-17.044 2.31-4.776 5.56-8.44 9.76-10.992 4.28-2.635 9.34-3.953 15.19-3.953 5.76 0 10.75 1.318 14.95 3.953 4.28 2.552 7.57 6.216 9.88 10.992 2.38 4.776 3.58 10.457 3.58 17.044 0 6.67-1.2 12.392-3.58 17.168-2.31 4.776-5.6 8.44-9.88 10.992-4.2 2.553-9.19 3.829-14.95 3.829Zm0-6.422c6.26 0 11.28-2.182 15.07-6.546 3.79-4.364 5.68-10.705 5.68-19.02 0-8.317-1.89-14.657-5.68-19.021-3.79-4.364-8.81-6.546-15.07-6.546-6.34 0-11.4 2.182-15.19 6.546-3.71 4.364-5.56 10.704-5.56 19.02 0 8.316 1.85 14.657 5.56 19.021 3.79 4.364 8.85 6.546 15.19 6.546Zm71.58 32.977c-5.19 0-10.05-.7-14.58-2.1-4.44-1.4-8.44-3.5-11.98-6.299l2.72-5.805c2.63 1.894 5.15 3.376 7.53 4.446a32.1 32.1 0 0 0 7.66 2.471c2.64.576 5.48.864 8.52.864 6.26 0 11-1.688 14.21-5.064 3.21-3.293 4.81-8.069 4.81-14.327v-19.638h1.36c-1.31 5.188-4.07 9.263-8.27 12.228-4.2 2.881-9.14 4.322-14.82 4.322-5.69 0-10.63-1.235-14.82-3.705-4.12-2.552-7.33-6.134-9.64-10.745-2.22-4.694-3.33-10.169-3.33-16.427 0-6.258 1.11-11.692 3.33-16.303 2.31-4.611 5.52-8.152 9.64-10.622 4.19-2.552 9.13-3.829 14.82-3.829 5.68 0 10.62 1.482 14.82 4.447 4.2 2.882 6.96 6.957 8.27 12.227l-1.36-1.359 1.12-14.203h7.41a111.12 111.12 0 0 0-.75 7.04c-.16 2.305-.24 4.57-.24 6.793v48.663c0 8.892-2.27 15.603-6.8 20.132-4.44 4.528-10.99 6.793-19.63 6.793Zm-1.98-35.324c6.42 0 11.49-2.141 15.19-6.423 3.79-4.281 5.68-10.292 5.68-18.032 0-7.657-1.89-13.627-5.68-17.909-3.7-4.281-8.77-6.422-15.19-6.422s-11.53 2.14-15.31 6.422c-3.79 4.282-5.69 10.251-5.69 17.91 0 7.739 1.9 13.75 5.69 18.031 3.78 4.282 8.89 6.423 15.31 6.423Z"/><path fill="url(#a)" d="m165.175 75.14-34.17-59.279a13.694 13.694 0 0 0-11.845-6.84H50.82a13.63 13.63 0 0 0-11.822 6.84l-34.17 59.28a13.71 13.71 0 0 0 0 13.679l34.17 59.279a13.632 13.632 0 0 0 11.822 6.84h68.34c4.875 0 9.385-2.6 11.822-6.84l34.17-59.28c2.46-4.24 2.46-9.438.023-13.679Z"/><path fill="url(#b)" d="M67.956 67.378a13.666 13.666 0 0 0 13.187 10.067h18.221a22.775 22.775 0 0 1 22.444 18.887 13.673 13.673 0 0 1 9.262 15.134 13.675 13.675 0 0 1-4.617 8.251 13.675 13.675 0 0 1-8.868 3.281 13.67 13.67 0 0 1-13.434-11.104 13.668 13.668 0 0 1 8.401-15.271 13.67 13.67 0 0 0-13.188-10.067h-18.22A22.685 22.685 0 0 1 67.477 82v14.44a13.67 13.67 0 1 1-9.11 0V67.56a13.67 13.67 0 1 1 9.588-.183Z"/><defs><radialGradient id="a" cx="0" cy="0" r="1" gradientTransform="matrix(164.056 0 0 164.199 126.373 153.038)" gradientUnits="userSpaceOnUse"><stop stop-color="#EC991C"/><stop offset="1" stop-color="#E9B213"/></radialGradient><linearGradient id="b" x1="131.238" x2="49.238" y1="41" y2="122.99" gradientUnits="userSpaceOnUse"><stop offset=".19" stop-color="#fff"/><stop offset=".61" stop-color="#fff" stop-opacity=".86"/><stop offset="1" stop-color="#fff" stop-opacity=".6"/></linearGradient></defs></svg>
